<svg xmlns="http://www.w3.org/2000/svg" viewBox="0 0 512 512" width="512" height="512" role="img" aria-label="Kirby Catalog">
  <defs>
    <clipPath id="kcClip"><rect x="26" y="26" width="460" height="460" rx="122" ry="122"/></clipPath>
    <linearGradient id="kcPlate" x1="0.06" y1="0" x2="0.92" y2="1">
      <stop offset="0" stop-color="#FF9DCB"/>
      <stop offset="0.34" stop-color="#F14E93"/>
      <stop offset="0.70" stop-color="#C22475"/>
      <stop offset="1" stop-color="#6C1350"/>
    </linearGradient>
    <radialGradient id="kcCyan" cx="0.5" cy="0.5" r="0.5">
      <stop offset="0" stop-color="#8CE8FF" stop-opacity="0.46"/>
      <stop offset="1" stop-color="#8CE8FF" stop-opacity="0"/>
    </radialGradient>
    <radialGradient id="kcViolet" cx="0.5" cy="0.5" r="0.5">
      <stop offset="0" stop-color="#B98CFF" stop-opacity="0.5"/>
      <stop offset="1" stop-color="#B98CFF" stop-opacity="0"/>
    </radialGradient>
    <radialGradient id="kcSheen" cx="0.22" cy="0.12" r="0.8">
      <stop offset="0" stop-color="#FFFFFF" stop-opacity="0.44"/>
      <stop offset="0.42" stop-color="#FFFFFF" stop-opacity="0.10"/>
      <stop offset="1" stop-color="#FFFFFF" stop-opacity="0"/>
    </radialGradient>
    <radialGradient id="kcVig" cx="0.84" cy="0.94" r="0.85">
      <stop offset="0" stop-color="#3E0A2C" stop-opacity="0.42"/>
      <stop offset="0.58" stop-color="#3E0A2C" stop-opacity="0.12"/>
      <stop offset="1" stop-color="#3E0A2C" stop-opacity="0"/>
    </radialGradient>
    <radialGradient id="kcFace" cx="0.32" cy="0.24" r="0.90">
      <stop offset="0" stop-color="#FFFDFE"/>
      <stop offset="0.28" stop-color="#FFDDED"/>
      <stop offset="0.64" stop-color="#FFB3D7"/>
      <stop offset="1" stop-color="#FF8FC2"/>
    </radialGradient>
    <radialGradient id="kcFaceShade" cx="0.74" cy="0.84" r="0.7">
      <stop offset="0" stop-color="#E4479A" stop-opacity="0.42"/>
      <stop offset="0.62" stop-color="#E4479A" stop-opacity="0.10"/>
      <stop offset="1" stop-color="#E4479A" stop-opacity="0"/>
    </radialGradient>
    <radialGradient id="kcCheek" cx="0.5" cy="0.5" r="0.5">
      <stop offset="0" stop-color="#FF4F93" stop-opacity="0.92"/>
      <stop offset="0.6" stop-color="#FF6BA5" stop-opacity="0.66"/>
      <stop offset="1" stop-color="#FF8CBC" stop-opacity="0"/>
    </radialGradient>
    <linearGradient id="kcEye" x1="0.5" y1="0" x2="0.5" y2="1">
      <stop offset="0" stop-color="#1B2350"/>
      <stop offset="0.58" stop-color="#111A3D"/>
      <stop offset="1" stop-color="#0B1230"/>
    </linearGradient>
    <linearGradient id="kcIris" x1="0.5" y1="0" x2="0.5" y2="1">
      <stop offset="0" stop-color="#4CC7F5"/>
      <stop offset="0.55" stop-color="#7EDCFB"/>
      <stop offset="1" stop-color="#C9F2FE"/>
    </linearGradient>
    <linearGradient id="kcMouth" x1="0.5" y1="0" x2="0.5" y2="1">
      <stop offset="0" stop-color="#B02350"/>
      <stop offset="1" stop-color="#7A1236"/>
    </linearGradient>
    <linearGradient id="kcStar" x1="0.2" y1="0" x2="0.82" y2="1">
      <stop offset="0" stop-color="#FFF9D2"/>
      <stop offset="0.42" stop-color="#FFD84C"/>
      <stop offset="1" stop-color="#FF9A17"/>
    </linearGradient>
    <clipPath id="kcEyeL"><ellipse cx="200" cy="262" rx="22" ry="43"/></clipPath>
    <clipPath id="kcEyeR"><ellipse cx="272" cy="262" rx="22" ry="43"/></clipPath>
  </defs>
  <g clip-path="url(#kcClip)">
    <rect x="26" y="26" width="460" height="460" rx="122" ry="122" fill="url(#kcPlate)"/>
    <circle cx="452" cy="86" r="196" fill="url(#kcCyan)"/>
    <circle cx="72" cy="452" r="214" fill="url(#kcViolet)"/>
    <rect x="26" y="26" width="460" height="460" rx="122" ry="122" fill="url(#kcSheen)"/>
    <rect x="26" y="26" width="460" height="460" rx="122" ry="122" fill="url(#kcVig)"/>
    <g fill="#FFFFFF">
      <path d="M112.00 97.00L116.60 113.40L133.00 118.00L116.60 122.60L112.00 139.00L107.40 122.60L91.00 118.00L107.40 113.40Z" opacity="0.92"/>
      <path d="M430.00 284.00L433.54 296.46L446.00 300.00L433.54 303.54L430.00 316.00L426.46 303.54L414.00 300.00L426.46 296.46Z" opacity="0.6"/>
      <path d="M96.00 323.00L98.83 333.17L109.00 336.00L98.83 338.83L96.00 349.00L93.17 338.83L83.00 336.00L93.17 333.17Z" opacity="0.5"/>
      <path d="M330.00 440.00L332.55 449.45L342.00 452.00L332.55 454.55L330.00 464.00L327.45 454.55L318.00 452.00L327.45 449.45Z" opacity="0.42"/>
      <path d="M176.00 66.00L178.12 73.88L186.00 76.00L178.12 78.12L176.00 86.00L173.88 78.12L166.00 76.00L173.88 73.88Z" opacity="0.55"/>
    </g>
    <g>
      <path d="M379.65 88.58L400.68 124.16L441.93 121.70L414.59 152.69L429.68 191.16L391.76 174.74L359.83 200.98L363.73 159.84L328.91 137.58L369.24 128.58Z" fill="#6E1350" opacity="0.3"/>
      <path d="M372.65 79.58L393.68 115.16L434.93 112.70L407.59 143.69L422.68 182.16L384.76 165.74L352.83 191.98L356.73 150.84L321.91 128.58L362.24 119.58Z" fill="#FFFFFF" stroke="#FFFFFF" stroke-width="17" stroke-linejoin="round"/>
      <path d="M372.65 79.58L393.68 115.16L434.93 112.70L407.59 143.69L422.68 182.16L384.76 165.74L352.83 191.98L356.73 150.84L321.91 128.58L362.24 119.58Z" fill="url(#kcStar)"/>
      <ellipse cx="362" cy="112" rx="12" ry="8" fill="#FFFFFF" opacity="0.62" transform="rotate(-30 362 112)"/>
    </g>
    <g>
      <circle cx="244" cy="302" r="133" fill="#6E1350" opacity="0.3"/>
      <circle cx="236" cy="292" r="133" fill="#FFFFFF"/>
      <circle cx="236" cy="292" r="124" fill="url(#kcFace)"/>
      <circle cx="236" cy="292" r="124" fill="url(#kcFaceShade)"/>
      <ellipse cx="172" cy="327" rx="28" ry="16" fill="url(#kcCheek)" transform="rotate(-13 172 327)"/>
      <ellipse cx="300" cy="327" rx="28" ry="16" fill="url(#kcCheek)" transform="rotate(13 300 327)"/>
      <ellipse cx="200" cy="262" rx="22" ry="43" fill="url(#kcEye)"/>
      <ellipse cx="272" cy="262" rx="22" ry="43" fill="url(#kcEye)"/>
      <g clip-path="url(#kcEyeL)"><ellipse cx="200" cy="290" rx="17" ry="23" fill="url(#kcIris)"/></g>
      <g clip-path="url(#kcEyeR)"><ellipse cx="272" cy="290" rx="17" ry="23" fill="url(#kcIris)"/></g>
      <ellipse cx="200" cy="236" rx="8.5" ry="13" fill="#FFFFFF"/>
      <ellipse cx="272" cy="236" rx="8.5" ry="13" fill="#FFFFFF"/>
      <path d="M220 320 Q236 307 252 320 Q236 342 220 320 Z" fill="url(#kcMouth)"/>
    </g>
  </g>
  <rect x="28.5" y="28.5" width="455" height="455" rx="119.5" ry="119.5" fill="none" stroke="#FFFFFF" stroke-opacity="0.3" stroke-width="5"/>
</svg>